<?xml version="1.0" encoding="utf-8" ?><svg xmlns="http://www.w3.org/2000/svg" xmlns:xlink="http://www.w3.org/1999/xlink" width="1024" height="1024" viewBox="0 0 1024 1024"><path fill="#FEFEFE" d="M0 0L1024 0L1024 1024L0 1024L0 0ZM628.873 212.709C620.587 213.592 609.408 215.271 602.229 219.741C602.283 223.679 602.69 227.498 603.761 231.302C601.911 233.117 600.233 234.739 600.296 237.522C600.341 239.496 601.763 241.116 603.244 242.228C603.558 242.462 603.875 242.689 604.198 242.91L618.337 302.665C620.42 311.51 624.321 323.618 624.687 332.531C625.001 340.19 623.32 348.541 622.583 356.192C621.829 364.009 621.624 371.83 621.047 379.651C605.351 376.743 485.217 355.932 479.483 357.155C474.47 361.248 475.27 371.607 473.841 377.575C468.333 377.089 460.602 376.055 455.928 379.74C454.894 380.556 454.142 381.602 453.958 382.937C453.627 385.343 455.068 387.777 456.637 389.47C460.214 393.33 465.627 395.327 470.383 397.3C469.546 402.069 468.796 406.874 467.726 411.596C462.766 411.261 456.137 410.467 452.019 413.93C450.824 414.935 450.067 416.262 450.031 417.849C449.976 420.206 451.418 422.349 453.049 423.925C456.213 426.984 460.434 428.637 464.38 430.423C463.647 435.603 462.748 440.813 462.236 446.017C457.117 445.37 451.166 445.187 446.882 448.607C445.428 449.768 444.488 451.32 444.431 453.208C444.364 455.445 445.674 457.585 447.244 459.081C450.348 462.037 454.644 463.337 458.622 464.672C457.606 470.321 456.659 475.981 455.782 481.653C450.454 480.967 443.306 479.97 438.652 483.315C437.21 484.351 436.328 485.759 436.162 487.552C435.95 489.84 437.442 492.186 438.972 493.743C442.625 497.461 447.546 499.085 452.295 500.861L449.67 516.151C444.462 515.969 437.813 515.331 433.584 519.06C432.36 520.139 431.479 521.499 431.313 523.16C431.098 525.31 432.164 527.267 433.64 528.745C437.002 532.112 442.028 533.356 446.536 534.322C445.516 539.334 444.47 544.342 443.399 549.344C438.52 549.084 432.052 548.629 428.091 552.023C426.827 553.106 425.987 554.484 425.899 556.18C425.792 558.224 426.826 560.011 428.219 561.429C431.306 564.573 436.455 566.291 440.702 567.161C439.51 573.401 438.066 579.703 437.199 585.991C431.548 585.834 423.211 585.55 418.691 589.493C417.392 590.627 416.777 591.913 416.754 593.663C416.725 595.905 418.502 598.155 420.102 599.537C423.894 602.81 429.096 604.206 433.769 605.719C432.802 610.261 431.963 614.828 431.252 619.417C425.562 618.977 418.333 618.659 413.64 622.476C412.188 623.657 411.18 625.25 411.032 627.146C410.85 629.469 412.038 631.645 413.587 633.289C417.14 637.059 422.93 638.81 427.737 640.393C426.321 648.929 421.915 668.082 423.206 676.015C423.66 678.811 425.025 681.455 426.674 683.728C428.676 686.487 431.399 689.146 434.561 690.523C442.706 694.071 474.819 697.511 485.516 698.968C486.68 699.125 487.845 699.268 489.012 699.399C516.228 703.442 543.479 707.253 570.761 710.832C585.406 712.86 600.413 715.922 615.178 716.706C617.685 716.839 622.27 717.028 624.373 715.66C626.459 714.304 627.88 709.835 628.562 707.482C631.428 697.596 632.504 686.589 634.222 676.423L644.524 617.615C646.317 606.975 647.343 595.592 649.882 585.163C655.579 610.554 661.073 635.842 667.522 661.063C677.178 668.729 693.733 668.217 705.338 666.886C726.95 664.407 755.972 656.595 770.223 639.221C770.6 638.761 770.926 638.291 771.258 637.798C769.398 626.892 766.601 616.141 764.257 605.332C759.46 582.83 754.495 560.364 749.364 537.936C745.261 519.393 740.981 500.89 736.523 482.43C733.512 469.475 730.845 456.042 726.76 443.398C722.449 430.057 718.146 416.409 712.582 403.529C705.438 386.993 696.241 371.034 687.562 355.262C683.475 347.894 679.289 340.581 675.007 333.324C672.392 328.84 669.42 324.328 667.381 319.559C665.598 315.389 664.76 310.545 663.657 306.139L657.097 279.496C654.185 268.133 651.377 256.743 648.672 245.329C647.756 241.482 646.143 236.952 645.833 233.051C645.765 232.204 646.007 231.577 646.206 230.781C646.589 229.248 646.679 227.967 645.916 226.524C644.78 224.377 641.947 224.545 640.259 223.092C636.942 220.236 639.132 214.381 632.519 212.874C631.354 212.609 630.054 212.525 628.873 212.709ZM691.17 234.988C690.68 236.224 690.197 237.164 690.475 238.524C692.86 241.087 703.627 240.981 707.38 241.455C766.521 248.932 790.481 281.742 788.326 340.499C787.009 376.408 775.924 411.999 762.333 444.994C760.638 449.109 756.217 457.382 755.718 461.509C755.561 462.81 755.78 463.098 756.465 464.104C757.71 464.608 758.298 464.668 759.622 464.446C764.059 456.704 767.136 447.658 770.451 439.378C787.173 397.614 801.755 342.649 789.548 297.945C783.954 277.46 771.779 260.479 753.217 249.92C739.278 241.991 707.482 233.439 691.17 234.988ZM341.192 236.801C340.109 239.799 339.89 295.082 340.788 297.233C341.245 298.327 341.851 298.688 342.995 298.924C343.508 299.03 344.376 298.888 344.871 298.846C345.393 297.858 345.805 296.869 345.941 295.748C347.034 286.763 346.039 276.515 345.945 267.438C345.854 258.664 346.666 247.08 345.234 238.56C343.984 237.16 343.059 236.984 341.192 236.801ZM585.606 256.426C538.224 276.511 492.206 299.674 447.846 325.765C444.808 327.581 433.813 333.294 432.807 336.108C432.333 337.434 432.511 337.722 433.101 338.884C434.216 339.539 434.735 339.675 436.028 339.613C450.003 330.097 464.747 321.998 479.545 313.861C511.419 296.265 544.105 280.179 577.492 265.657C580.845 264.178 587.85 262.15 588.894 258.287C588.564 257.455 588.683 257.223 587.813 256.812C586.964 256.411 586.516 256.396 585.606 256.426ZM372.455 260.656C370.077 264.052 363.957 293.251 364.572 297.465C364.738 298.607 364.986 299.27 366.047 299.823C366.648 300.135 367.613 300.236 368.286 300.369C370.478 296.384 376.418 266.49 375.508 262.535C374.597 261.313 373.914 261.087 372.455 260.656ZM314.209 275.187C311.767 278.427 313.305 289.234 313.864 293.349C314.144 295.406 314.499 297.328 315.509 299.167C316.366 299.746 316.841 299.95 317.872 300.048C320.825 295.745 319.177 284.716 318.164 279.709C317.924 278.521 317.629 276.647 316.61 275.83C315.97 275.316 314.988 275.293 314.209 275.187ZM390.429 287.319C388.542 290.355 385.484 299.716 386.683 303.269C387.05 304.359 387.565 305.157 388.733 305.494C389.133 305.61 389.832 305.567 390.257 305.557C391.743 301.576 395.496 293.401 394.155 289.294C393.804 288.22 393.114 287.761 392.048 287.484C391.622 287.374 390.885 287.347 390.429 287.319ZM303.364 309.195C298.836 313.021 294.558 325.913 292.27 331.815C281.889 358.502 273.284 385.846 266.512 413.668C262.62 429.303 258.895 445.328 257.508 461.407C255.786 481.384 258.861 498.893 272 514.476C278.943 522.71 287.265 529.667 296.252 535.565C302.538 539.69 320.077 547.953 323.621 552.706C325.855 555.701 326.047 560.967 326.314 564.589C327.93 586.469 326.38 609.066 325.656 631.002C324.697 665.929 322.952 700.829 320.424 735.678C319.817 743.288 319.164 750.895 318.465 758.498C305.247 759.09 251.543 759.319 243.696 767.199C242.989 767.909 242.496 768.789 242.53 769.814C242.584 771.435 243.814 772.699 245.039 773.609C262.343 786.45 351.862 790.629 377.261 790.186C385.865 789.984 410.719 790.832 416.148 784.76C417.124 783.669 417.106 783.014 417.07 781.607C415.067 777.758 410.672 776.135 406.739 774.901C396.329 771.636 385.402 770.122 374.695 768.153C362.173 765.849 349.006 763.006 336.808 759.339C337.993 713.184 340.032 667.054 342.926 620.974C343.687 606.671 344.734 592.385 346.066 578.124C346.636 571.874 346.784 564.743 348.441 558.721C348.792 557.444 349.478 556.713 350.426 555.834C356.17 550.512 365.896 548.308 373.026 545.24C404.714 531.61 424.556 513.243 426.617 477.424C427.533 461.496 426.093 445.452 424.783 429.582C422.166 397.879 418.629 365.489 410.496 334.668C409.282 330.067 408.026 322.853 404.939 319.234C403.965 318.092 402.99 317.789 401.562 317.471C392.998 315.567 383.036 315.584 374.242 314.796C350.625 312.678 327 311.047 303.364 309.195ZM291.764 572.718C285.474 580.218 280.88 590.184 276.199 598.762C258.313 631.539 238.046 670.33 230.864 707.067C230.316 709.873 229.243 713.602 229.496 716.447C229.597 717.571 229.964 717.803 230.707 718.586C231.568 718.782 232.39 718.971 233.268 719.074C235.616 716.293 235.795 709.802 236.53 706.105C238.223 697.59 240.895 689.107 243.732 680.912C249.494 664.272 257.026 647.859 264.852 632.094C271.297 619.056 278.055 606.175 285.121 593.462C287.916 588.41 291.387 583.436 293.943 578.33C294.544 577.129 294.905 576.107 294.896 574.745C294.286 573.594 294.146 573.32 292.834 572.888C292.492 572.775 292.12 572.753 291.764 572.718ZM707.689 677.847C680.856 695.08 654.505 712.724 626.889 728.749C598.349 745.127 568.803 759.687 538.428 772.34C502.912 787.213 467.801 799.855 429.421 804.83C408.095 807.595 387.093 808.241 365.735 805.443C362.346 805 356.712 802.77 354.514 806.223C354.599 807.705 354.621 807.738 355.602 808.855L357.033 809.368C391.155 814.774 423.393 812.825 457.107 805.504C477.203 801.14 496.591 794.327 515.775 787.033C568.817 766.864 618.245 740.667 666.374 710.781C679.861 702.406 693.932 694.192 706.722 684.804C708.157 683.75 709.434 682.686 710.374 681.155C710.518 679.771 710.504 679.796 709.704 678.654L707.689 677.847Z"/><path d="M602.229 219.741C609.408 215.271 620.587 213.592 628.873 212.709C630.054 212.525 631.354 212.609 632.519 212.874C639.132 214.381 636.942 220.236 640.259 223.092C641.947 224.545 644.78 224.377 645.916 226.524C646.679 227.967 646.589 229.248 646.206 230.781C646.007 231.577 645.765 232.204 645.833 233.051C646.143 236.952 647.756 241.482 648.672 245.329C651.377 256.743 654.185 268.133 657.097 279.496L663.657 306.139C664.76 310.545 665.598 315.389 667.381 319.559C669.42 324.328 672.392 328.84 675.007 333.324C679.289 340.581 683.475 347.894 687.562 355.262C696.241 371.034 705.438 386.993 712.582 403.529C718.146 416.409 722.449 430.057 726.76 443.398C730.845 456.042 733.512 469.475 736.523 482.43C740.981 500.89 745.261 519.393 749.364 537.936C754.495 560.364 759.46 582.83 764.257 605.332C766.601 616.141 769.398 626.892 771.258 637.798C770.926 638.291 770.6 638.761 770.223 639.221C755.972 656.595 726.95 664.407 705.338 666.886C693.733 668.217 677.178 668.729 667.522 661.063C661.073 635.842 655.579 610.554 649.882 585.163C647.343 595.592 646.317 606.975 644.524 617.615L634.222 676.423C632.504 686.589 631.428 697.596 628.562 707.482C627.88 709.835 626.459 714.304 624.373 715.66C622.27 717.028 617.685 716.839 615.178 716.706C600.413 715.922 585.406 712.86 570.761 710.832C543.479 707.253 516.228 703.442 489.012 699.399C487.845 699.268 486.68 699.125 485.516 698.968C474.819 697.511 442.706 694.071 434.561 690.523C431.399 689.146 428.676 686.487 426.674 683.728C425.025 681.455 423.66 678.811 423.206 676.015C421.915 668.082 426.321 648.929 427.737 640.393C422.93 638.81 417.14 637.059 413.587 633.289C412.038 631.645 410.85 629.469 411.032 627.146C411.18 625.25 412.188 623.657 413.64 622.476C418.333 618.659 425.562 618.977 431.252 619.417C431.963 614.828 432.802 610.261 433.769 605.719C429.096 604.206 423.894 602.81 420.102 599.537C418.502 598.155 416.725 595.905 416.754 593.663C416.777 591.913 417.392 590.627 418.691 589.493C423.211 585.55 431.548 585.834 437.199 585.991C438.066 579.703 439.51 573.401 440.702 567.161C436.455 566.291 431.306 564.573 428.219 561.429C426.826 560.011 425.792 558.224 425.899 556.18C425.987 554.484 426.827 553.106 428.091 552.023C432.052 548.629 438.52 549.084 443.399 549.344C444.47 544.342 445.516 539.334 446.536 534.322C442.028 533.356 437.002 532.112 433.64 528.745C432.164 527.267 431.098 525.31 431.313 523.16C431.479 521.499 432.36 520.139 433.584 519.06C437.813 515.331 444.462 515.969 449.67 516.151L452.295 500.861C447.546 499.085 442.625 497.461 438.972 493.743C437.442 492.186 435.95 489.84 436.162 487.552C436.328 485.759 437.21 484.351 438.652 483.315C443.306 479.97 450.454 480.967 455.782 481.653C456.659 475.981 457.606 470.321 458.622 464.672C454.644 463.337 450.348 462.037 447.244 459.081C445.674 457.585 444.364 455.445 444.431 453.208C444.488 451.32 445.428 449.768 446.882 448.607C451.166 445.187 457.117 445.37 462.236 446.017C462.748 440.813 463.647 435.603 464.38 430.423C460.434 428.637 456.213 426.984 453.049 423.925C451.418 422.349 449.976 420.206 450.031 417.849C450.067 416.262 450.824 414.935 452.019 413.93C456.137 410.467 462.766 411.261 467.726 411.596C468.796 406.874 469.546 402.069 470.383 397.3C465.627 395.327 460.214 393.33 456.637 389.47C455.068 387.777 453.627 385.343 453.958 382.937C454.142 381.602 454.894 380.556 455.928 379.74C460.602 376.055 468.333 377.089 473.841 377.575C475.27 371.607 474.47 361.248 479.483 357.155C485.217 355.932 605.351 376.743 621.047 379.651C621.624 371.83 621.829 364.009 622.583 356.192C623.32 348.541 625.001 340.19 624.687 332.531C624.321 323.618 620.42 311.51 618.337 302.665L604.198 242.91C603.875 242.689 603.558 242.462 603.244 242.228C601.763 241.116 600.341 239.496 600.296 237.522C600.233 234.739 601.911 233.117 603.761 231.302C602.69 227.498 602.283 223.679 602.229 219.741ZM623.977 220.596C620.657 221.554 609.517 223.235 607.823 225.522C607.709 226.917 607.97 227.622 608.463 228.891C610.199 230.017 611.403 230.025 613.414 229.618C617.499 228.792 621.396 227.065 625.453 226.052C627.941 225.498 631.774 225.595 633.601 223.794C633.917 221.935 633.313 220.932 632.688 219.177C629.73 219.517 626.879 219.919 623.977 220.596ZM624.642 232.157C619.058 233.853 613.659 235.938 608.222 238.047C615.688 267.853 622.239 297.882 629.584 327.706C634.526 326.595 639.438 325.523 644.255 323.933L661.124 319.25C652.834 289.547 646.931 259.24 639.596 229.303C634.578 229.794 629.53 230.952 624.642 232.157ZM654.431 327.133C652.142 327.724 649.846 328.399 647.533 328.884L640.54 330.561C638.307 331.286 635.929 332.225 633.551 332.179C632.103 332.291 631.209 332.313 630.033 333.281C627.411 338.35 627.841 346.847 627.314 352.522C624.115 386.985 623.671 423.112 629.21 457.351C630.011 462.299 631.338 467.053 632.33 471.944C634.972 472.08 637.613 472.233 640.253 472.405C644.358 472.524 648.464 472.552 652.543 472.043C656.311 471.945 660.23 471.325 663.863 470.33C667.68 469.628 671.488 468.869 675.283 468.054C688.462 467.863 712.46 455.617 723.598 448.602C718.424 435.519 714.547 421.842 708.564 409.1C698.771 388.241 687.374 367.614 676.215 347.457C671.792 339.468 666.931 331.67 662.847 323.503C660.037 324.495 656.811 325.311 654.431 327.133ZM703.569 624.137L693.28 625.571C690.097 625.711 686.837 625.916 683.7 626.488L672.123 626.826C674.355 638.102 676.308 649.639 679.217 660.755C683.05 661.427 686.967 662.166 690.877 662.031C694.481 662.184 697.995 662.07 701.571 661.603C704.883 661.315 708.208 660.762 711.505 660.325C730.755 659.523 750.623 648.744 765.503 637.186C763.395 626.242 760.868 615.375 758.659 604.448C741.993 614.014 722.385 620.328 703.569 624.137ZM481.63 362.395C480.726 367.657 479.774 372.894 479.312 378.218C482.921 379.809 486.454 382.342 490.078 383.648C494.411 385.209 500.54 382.859 502.422 388.996C502.794 390.211 502.541 391.496 501.887 392.568C500.798 394.351 498.707 395.373 496.696 395.662C494.066 396.029 491.404 395.253 489.385 393.529C487.792 392.194 487.335 390.543 486.724 388.635C483.887 386.814 481.176 385.418 478.075 384.112C476.625 393.619 475.339 403.267 473.16 412.64C476.69 414.117 480.09 415.706 483.482 417.478C486.517 416.627 490.41 416.013 493.276 417.76C494.817 418.699 495.694 420.214 495.962 421.981C496.199 423.544 495.565 425.294 494.536 426.459C493.252 427.89 491.428 428.72 489.505 428.746C487.048 428.756 484.453 427.326 482.785 425.581C481.825 424.577 481.123 423.288 480.423 422.095C477.72 420.941 475.087 419.835 472.248 419.046C470.551 428.397 468.713 437.746 467.244 447.134C469.757 448.104 472.383 449.211 475.014 449.818C479.93 450.951 488.164 450.077 490.712 455.221C490.877 456.843 490.685 458.01 489.586 459.239C488.179 460.812 485.986 461.622 483.9 461.607C481.297 461.589 478.52 460.51 476.818 458.487C476.051 457.574 475.393 456.546 474.737 455.551C472.001 454.696 469.263 453.741 466.469 453.097C464.476 463.061 463.273 473.108 461.381 483.061C464.495 483.923 469.251 486.522 471.811 486.923C472.382 487.012 473.28 486.513 473.742 486.296C475.573 485.434 477.707 485.764 479.53 486.506C481.303 487.228 483.514 488.69 484.29 490.53C484.787 491.708 484.868 492.829 484.315 494.001C483.575 495.568 481.966 496.634 480.332 497.103C478.227 497.708 474.609 497.462 472.683 496.406C470.574 495.25 470.096 492.899 468.251 491.554C466.493 490.272 462.481 489.597 460.342 488.975C458.359 498.008 456.674 507.103 455.287 516.246C458.714 517.126 463.246 519.708 465.65 520.183C469.353 520.913 474.737 517.797 477.507 522.094C478.418 523.508 478.667 525.966 478.142 527.552C477.606 529.172 475.958 530.658 474.377 531.23C472.371 531.956 469.538 531.78 467.646 530.788C461.599 527.62 461.992 524.642 453.85 522.348C452.375 531.63 450.87 540.925 448.557 550.043C452.408 550.913 455.512 552.763 459.206 553.864C463.596 555.172 468.136 551.612 471.696 557.17C472.571 558.535 472.654 559.81 472.178 561.33C471.695 562.873 470.303 564.045 468.86 564.658C466.429 565.689 463.676 565.286 461.359 564.16C458.733 562.885 457.296 560.962 455.824 558.519C453.131 557.604 450.453 556.616 447.655 556.076C445.788 566.226 443.981 576.387 442.234 586.559C445.81 587.714 449.272 588.976 452.735 590.436L453.246 590.257C455.702 589.423 458.224 588.879 460.656 590.114C462.359 590.978 463.788 592.747 464.168 594.632C464.421 595.892 464.267 597.201 463.515 598.268C462.512 599.693 460.786 600.186 459.135 600.262C454.461 600.478 451.231 597.777 447.689 595.198C445.672 593.729 443.561 593.224 441.229 592.479C439.436 601.678 438.153 611.004 436.227 620.17C440.644 621.504 445.401 624.019 449.955 624.257C452.839 624.408 457.463 624.727 459.383 627.161C460.082 628.046 460.36 628.97 460.259 630.098C460.148 631.339 459.507 632.993 458.55 633.797C456.892 635.189 454.153 635.15 452.091 635.17C447.373 633.714 445.894 632.279 443.279 628.178C440.621 627.355 438.004 626.598 435.282 626.009C432.739 641.614 429.627 657.411 428.027 673.13C439.317 675.026 450.755 676.331 462.091 677.962L545.16 689.704L588.118 695.759C596.005 696.852 604.33 698.513 612.287 698.612C615.796 684.019 617.942 668.959 620.441 654.162C624.208 632.973 627.797 611.752 631.206 590.502C633.349 577.678 635.618 564.892 637.549 552.031C638.303 547.007 639.767 541.126 639.443 536.068C639.071 530.251 637.351 524.199 636.133 518.492C634.441 510.711 632.88 502.903 631.451 495.069C629.368 484.052 626.953 473.081 625.243 461.997C621.324 436.457 619.884 410.598 620.941 384.781C574.556 377.212 528.176 368.865 481.63 362.395ZM462.009 382.531C460.744 383.42 459.993 383.568 459.655 385.115C461.416 388.414 467.375 389.888 470.634 391.529C471.86 390.664 472.076 388.031 472.33 386.513C472.49 385.519 472.636 384.523 472.768 383.525C469.213 382.947 465.624 382.36 462.009 382.531ZM459.524 417.197C458.005 417.425 456.998 417.272 455.918 418.403C456.36 420.15 457.449 420.871 458.955 421.766C460.632 422.749 462.336 423.685 464.066 424.571L464.972 424.788C466.22 422.996 466.372 419.744 466.783 417.591C464.375 417.405 461.94 417.123 459.524 417.197ZM454.913 451.16C453.249 451.46 452.013 451.598 450.695 452.762C450.485 453.434 450.214 453.683 450.575 454.358C451.901 456.843 455.451 457.691 457.948 458.459L459.48 458.77C461.161 457.177 461.082 453.855 461.309 451.611L454.913 451.16ZM723.872 454.462C700.163 470.572 661.898 479.282 633.575 477.338C638.686 506.244 645.099 534.995 650.968 563.76C652.774 572.611 660.871 615.042 663.615 619.975C663.815 620.335 664.248 620.5 664.565 620.762L666.878 620.984C695.828 623.457 732.572 613.528 757.354 598.589C754.574 586.229 725.989 456.406 723.872 454.462ZM443.677 486.564L442.065 487.681C441.956 488.817 441.77 488.479 442.357 489.252C444.294 491.801 449.977 493.653 452.916 494.972C454.111 493.012 454.253 489.83 454.643 487.563C450.877 486.753 447.547 486.348 443.677 486.564ZM439.815 521.584C438.459 522.293 437.928 522.364 437.218 523.759C437.887 525.577 438.946 526.192 440.677 526.982C442.579 527.851 444.599 528.364 446.613 528.896C447.977 527.614 448.309 523.577 448.749 521.633C445.768 521.543 442.794 521.4 439.815 521.584ZM642.704 551.865C638.923 581.946 633.131 611.9 627.967 641.779C624.943 659.275 622.989 677.347 618.972 694.627C618.498 696.667 617.407 701.753 615.751 702.952C614.037 704.192 608.464 703.671 606.283 703.475C597.236 702.66 588.15 701.18 579.151 699.938L524.24 692.203L469.598 684.341C456.049 682.439 442.148 681.06 428.785 678.108C430.801 680.713 432.739 683.114 435.249 685.265C436.959 686.109 438.634 686.62 440.497 686.983C460.81 690.945 481.737 693.056 502.238 695.99C518.557 698.325 614.284 713.171 621.48 711.52C622.443 709.543 623.05 707.491 623.544 705.357C628.397 684.416 631.132 662.352 634.941 641.13C637.774 625.28 640.467 609.406 643.019 593.509C644.156 586.337 645.943 578.551 646.192 571.31C646.364 566.295 644.805 557.366 643.094 552.697C642.988 552.41 642.834 552.143 642.704 551.865ZM431.778 555.194L430.995 556.035C431.344 557.347 431.803 557.81 432.962 558.545C435.384 560.082 438.471 561.033 441.203 561.876C441.64 559.631 442.094 557.391 442.432 555.129C438.8 554.863 435.404 554.742 431.778 555.194ZM426.059 591.566C424.419 592.28 423.519 592.453 422.453 593.92C422.785 595.3 423.144 595.81 424.356 596.604C426.87 598.25 430.374 599.179 433.276 599.93L434.466 599.686C435.722 597.487 435.711 594.073 436.011 591.582C432.699 591.485 429.365 591.282 426.059 591.566ZM420.31 624.668C418.716 625.317 417.673 625.703 416.639 627.116C416.583 628.492 416.549 628.762 417.548 629.848C419.609 632.088 424.413 633.522 427.265 634.545L428.281 634.348C429.622 631.69 429.746 627.676 430.2 624.706C426.904 624.608 423.604 624.441 420.31 624.668Z"/><path fill="#C77517" d="M623.977 220.596C626.879 219.919 629.73 219.517 632.688 219.177C633.313 220.932 633.917 221.935 633.601 223.794C631.774 225.595 627.941 225.498 625.453 226.052C625.078 224.18 624.558 222.413 623.977 220.596Z"/><path fill="#FEFEFE" d="M625.453 226.052C621.396 227.065 617.499 228.792 613.414 229.618C611.403 230.025 610.199 230.017 608.463 228.891C607.97 227.622 607.709 226.917 607.823 225.522C609.517 223.235 620.657 221.554 623.977 220.596C624.558 222.413 625.078 224.18 625.453 226.052Z"/><path fill="#C77517" d="M624.642 232.157C629.53 230.952 634.578 229.794 639.596 229.303C646.931 259.24 652.834 289.547 661.124 319.25L644.255 323.933C642.156 314.341 627.185 234.329 624.642 232.157Z"/><path fill="#FEFEFE" d="M608.222 238.047C613.659 235.938 619.058 233.853 624.642 232.157C627.185 234.329 642.156 314.341 644.255 323.933C639.438 325.523 634.526 326.595 629.584 327.706C622.239 297.882 615.688 267.853 608.222 238.047Z"/><path d="M759.622 464.446C758.298 464.668 757.71 464.608 756.465 464.104C755.78 463.098 755.561 462.81 755.718 461.509C756.217 457.382 760.638 449.109 762.333 444.994C775.924 411.999 787.009 376.408 788.326 340.499C790.481 281.742 766.521 248.932 707.38 241.455C703.627 240.981 692.86 241.087 690.475 238.524C690.197 237.164 690.68 236.224 691.17 234.988C707.482 233.439 739.278 241.991 753.217 249.92C771.779 260.479 783.954 277.46 789.548 297.945C801.755 342.649 787.173 397.614 770.451 439.378C767.136 447.658 764.059 456.704 759.622 464.446Z"/><path d="M344.871 298.846C344.376 298.888 343.508 299.03 342.995 298.924C341.851 298.688 341.245 298.327 340.788 297.233C339.89 295.082 340.109 239.799 341.192 236.801C343.059 236.984 343.984 237.16 345.234 238.56C346.666 247.08 345.854 258.664 345.945 267.438C346.039 276.515 347.034 286.763 345.941 295.748C345.805 296.869 345.393 297.858 344.871 298.846Z"/><path d="M436.028 339.613C434.735 339.675 434.216 339.539 433.101 338.884C432.511 337.722 432.333 337.434 432.807 336.108C433.813 333.294 444.808 327.581 447.846 325.765C492.206 299.674 538.224 276.511 585.606 256.426C586.516 256.396 586.964 256.411 587.813 256.812C588.683 257.223 588.564 257.455 588.894 258.287C587.85 262.15 580.845 264.178 577.492 265.657C544.105 280.179 511.419 296.265 479.545 313.861C464.747 321.998 450.003 330.097 436.028 339.613Z"/><path d="M368.286 300.369C367.613 300.236 366.648 300.135 366.047 299.823C364.986 299.27 364.738 298.607 364.572 297.465C363.957 293.251 370.077 264.052 372.455 260.656C373.914 261.087 374.597 261.313 375.508 262.535C376.418 266.49 370.478 296.384 368.286 300.369Z"/><path d="M317.872 300.048C316.841 299.95 316.366 299.746 315.509 299.167C314.499 297.328 314.144 295.406 313.864 293.349C313.305 289.234 311.767 278.427 314.209 275.187C314.988 275.293 315.97 275.316 316.61 275.83C317.629 276.647 317.924 278.521 318.164 279.709C319.177 284.716 320.825 295.745 317.872 300.048Z"/><path d="M390.257 305.557C389.832 305.567 389.133 305.61 388.733 305.494C387.565 305.157 387.05 304.359 386.683 303.269C385.484 299.716 388.542 290.355 390.429 287.319C390.885 287.347 391.622 287.374 392.048 287.484C393.114 287.761 393.804 288.22 394.155 289.294C395.496 293.401 391.743 301.576 390.257 305.557Z"/><path d="M318.465 758.498C319.164 750.895 319.817 743.288 320.424 735.678C322.952 700.829 324.697 665.929 325.656 631.002C326.38 609.066 327.93 586.469 326.314 564.589C326.047 560.967 325.855 555.701 323.621 552.706C320.077 547.953 302.538 539.69 296.252 535.565C287.265 529.667 278.943 522.71 272 514.476C258.861 498.893 255.786 481.384 257.508 461.407C258.895 445.328 262.62 429.303 266.512 413.668C273.284 385.846 281.889 358.502 292.27 331.815C294.558 325.913 298.836 313.021 303.364 309.195C327 311.047 350.625 312.678 374.242 314.796C383.036 315.584 392.998 315.567 401.562 317.471C402.99 317.789 403.965 318.092 404.939 319.234C408.026 322.853 409.282 330.067 410.496 334.668C418.629 365.489 422.166 397.879 424.783 429.582C426.093 445.452 427.533 461.496 426.617 477.424C424.556 513.243 404.714 531.61 373.026 545.24C365.896 548.308 356.17 550.512 350.426 555.834C349.478 556.713 348.792 557.444 348.441 558.721C346.784 564.743 346.636 571.874 346.066 578.124C344.734 592.385 343.687 606.671 342.926 620.974C340.032 667.054 337.993 713.184 336.808 759.339C349.006 763.006 362.173 765.849 374.695 768.153C385.402 770.122 396.329 771.636 406.739 774.901C410.672 776.135 415.067 777.758 417.07 781.607C417.106 783.014 417.124 783.669 416.148 784.76C410.719 790.832 385.865 789.984 377.261 790.186C351.862 790.629 262.343 786.45 245.039 773.609C243.814 772.699 242.584 771.435 242.53 769.814C242.496 768.789 242.989 767.909 243.696 767.199C251.543 759.319 305.247 759.09 318.465 758.498ZM306.106 314.576C300.407 324.059 296.845 335.062 293.087 345.429C284.306 369.347 276.942 393.761 271.033 418.545C267.752 431.821 264.43 445.307 262.946 458.923C261.894 468.572 261.758 479.093 264.089 488.576C269.369 510.056 287.782 524.689 305.882 535.465C313.242 539.846 327.92 545.208 330.193 553.905C332.999 564.64 332.046 590.227 331.831 602.419C331.028 641.197 329.341 679.951 326.773 718.652C325.859 732.237 325.451 751.122 322.506 763.914C301.369 765.238 268.276 763.693 248.793 769.976C274.238 781.73 343.97 785.488 373.795 785.074C386.168 784.852 399.479 785.081 411.47 781.754C405.36 779.963 399.188 778.389 392.966 777.037C383.572 775.038 338.589 767.303 332.728 762.796C332.001 760.51 331.859 758.22 331.816 755.837C331.435 734.769 338.438 567.157 344.312 555.224C348.306 547.112 363.995 543.723 371.768 540.215C378.008 537.399 384.201 534.228 389.98 530.558C402.186 522.807 412.413 512.336 417.277 498.509C419.818 491.287 420.933 483.625 421.387 476.005C422.115 463.811 421.058 451.537 420.235 439.375C417.931 405.303 412.883 360.577 402.809 327.876C402.312 326.214 401.764 324.568 401.166 322.941C369.645 319.314 337.746 316.998 306.106 314.576Z"/><path fill="#FEFEFE" d="M322.506 763.914C325.451 751.122 325.859 732.237 326.773 718.652C329.341 679.951 331.028 641.197 331.831 602.419C332.046 590.227 332.999 564.64 330.193 553.905C327.92 545.208 313.242 539.846 305.882 535.465C287.782 524.689 269.369 510.056 264.089 488.576C261.758 479.093 261.894 468.572 262.946 458.923C264.43 445.307 267.752 431.821 271.033 418.545C276.942 393.761 284.306 369.347 293.087 345.429C296.845 335.062 300.407 324.059 306.106 314.576C337.746 316.998 369.645 319.314 401.166 322.941C401.764 324.568 402.312 326.214 402.809 327.876C412.883 360.577 417.931 405.303 420.235 439.375C421.058 451.537 422.115 463.811 421.387 476.005C420.933 483.625 419.818 491.287 417.277 498.509C412.413 512.336 402.186 522.807 389.98 530.558C384.201 534.228 378.008 537.399 371.768 540.215C363.995 543.723 348.306 547.112 344.312 555.224C338.438 567.157 331.435 734.769 331.816 755.837C331.859 758.22 332.001 760.51 332.728 762.796C338.589 767.303 383.572 775.038 392.966 777.037C399.188 778.389 405.36 779.963 411.47 781.754C399.479 785.081 386.168 784.852 373.795 785.074C343.97 785.488 274.238 781.73 248.793 769.976C268.276 763.693 301.369 765.238 322.506 763.914ZM311.454 320.968C308.143 327.555 306.253 335.291 303.982 342.316C295.44 368.525 288.609 395.26 283.531 422.354C282.768 426.352 280.174 435.235 281.507 439.121C281.989 440.528 282.668 440.591 283.932 441.211C284.671 441.152 285.195 441.302 285.748 440.732C287.494 438.929 288.185 428.692 288.746 425.524C292.014 407.049 295.723 388.363 301.263 370.424C305.446 355.668 309.922 340.996 314.688 326.417C331.241 327.844 347.802 329.166 364.372 330.384C373.237 331.059 382.604 332.383 391.47 332.239C392.981 332.214 394.866 331.652 396.006 330.623C396.53 330.151 396.394 330.208 396.571 329.479C395.737 328.044 394.395 327.591 392.85 327.202C387.843 325.938 372.688 325.64 366.296 325.157C348.089 323.783 329.685 321.704 311.454 320.968ZM294.341 450.223C288.353 450.438 281.783 450.172 275.996 451.839C272.078 468.163 273.324 485.582 282.233 500.075C292.2 516.289 308.54 527.33 324.606 536.815C330.127 540.074 336.032 543.709 342.256 545.392C353.575 541.982 365.278 534.851 375.262 528.608C393.464 516.614 404.044 501.154 408.466 479.758C409.515 474.685 410.424 469.301 410.596 464.12C394.324 454.971 314.738 448.815 294.341 450.223Z"/><path d="M301.263 370.424C295.723 388.363 292.014 407.049 288.746 425.524C288.185 428.692 287.494 438.929 285.748 440.732C285.195 441.302 284.671 441.152 283.932 441.211C282.668 440.591 281.989 440.528 281.507 439.121C280.174 435.235 282.768 426.352 283.531 422.354C288.609 395.26 295.44 368.525 303.982 342.316C306.253 335.291 308.143 327.555 311.454 320.968C329.685 321.704 348.089 323.783 366.296 325.157C372.688 325.64 387.843 325.938 392.85 327.202C394.395 327.591 395.737 328.044 396.571 329.479C396.394 330.208 396.53 330.151 396.006 330.623C394.866 331.652 392.981 332.214 391.47 332.239C382.604 332.383 373.237 331.059 364.372 330.384C347.802 329.166 331.241 327.844 314.688 326.417C309.922 340.996 305.446 355.668 301.263 370.424Z"/><path fill="#39090A" d="M654.431 327.133C656.811 325.311 660.037 324.495 662.847 323.503C666.931 331.67 671.792 339.468 676.215 347.457C687.374 367.614 698.771 388.241 708.564 409.1C714.547 421.842 718.424 435.519 723.598 448.602C712.46 455.617 688.462 467.863 675.283 468.054C666.622 434.82 661.497 402.345 657.896 368.239C656.476 354.788 656.582 340.312 654.431 327.133Z"/><path fill="#FEFEFE" d="M647.533 328.884C649.846 328.399 652.142 327.724 654.431 327.133C656.582 340.312 656.476 354.788 657.896 368.239C661.497 402.345 666.622 434.82 675.283 468.054C671.488 468.869 667.68 469.628 663.863 470.33C656.425 437.937 652.232 405.114 649.678 371.999C648.575 357.692 647.534 343.236 647.533 328.884Z"/><path fill="#39090A" d="M640.54 330.561L647.533 328.884C647.534 343.236 648.575 357.692 649.678 371.999C652.232 405.114 656.425 437.937 663.863 470.33C660.23 471.325 656.311 471.945 652.543 472.043C649.307 455.778 645.523 439.759 643.516 423.265C639.774 392.515 640.429 361.467 640.54 330.561Z"/><path fill="#FEFEFE" d="M633.551 332.179C635.929 332.225 638.307 331.286 640.54 330.561C640.429 361.467 639.774 392.515 643.516 423.265C645.523 439.759 649.307 455.778 652.543 472.043C648.464 472.552 644.358 472.524 640.253 472.405C636.743 453.151 633.617 433.67 632.347 414.123C631.274 397.617 631.542 381.122 631.991 364.599C632.284 353.811 632.345 342.911 633.551 332.179Z"/><path fill="#39090A" d="M632.33 471.944C631.338 467.053 630.011 462.299 629.21 457.351C623.671 423.112 624.115 386.985 627.314 352.522C627.841 346.847 627.411 338.35 630.033 333.281C631.209 332.313 632.103 332.291 633.551 332.179C632.345 342.911 632.284 353.811 631.991 364.599C631.542 381.122 631.274 397.617 632.347 414.123C633.617 433.67 636.743 453.151 640.253 472.405C637.613 472.233 634.972 472.08 632.33 471.944Z"/><path fill="#FEFEFE" d="M479.312 378.218C479.774 372.894 480.726 367.657 481.63 362.395C528.176 368.865 574.556 377.212 620.941 384.781C619.884 410.598 621.324 436.457 625.243 461.997C626.953 473.081 629.368 484.052 631.451 495.069C632.88 502.903 634.441 510.711 636.133 518.492C637.351 524.199 639.071 530.251 639.443 536.068C639.767 541.126 638.303 547.007 637.549 552.031C635.618 564.892 633.349 577.678 631.206 590.502C627.797 611.752 624.208 632.973 620.441 654.162C617.942 668.959 615.796 684.019 612.287 698.612C604.33 698.513 596.005 696.852 588.118 695.759L545.16 689.704L462.091 677.962C450.755 676.331 439.317 675.026 428.027 673.13C429.627 657.411 432.739 641.614 435.282 626.009C438.004 626.598 440.621 627.355 443.279 628.178C445.894 632.279 447.373 633.714 452.091 635.17C454.153 635.15 456.892 635.189 458.55 633.797C459.507 632.993 460.148 631.339 460.259 630.098C460.36 628.97 460.082 628.046 459.383 627.161C457.463 624.727 452.839 624.408 449.955 624.257C445.401 624.019 440.644 621.504 436.227 620.17C438.153 611.004 439.436 601.678 441.229 592.479C443.561 593.224 445.672 593.729 447.689 595.198C451.231 597.777 454.461 600.478 459.135 600.262C460.786 600.186 462.512 599.693 463.515 598.268C464.267 597.201 464.421 595.892 464.168 594.632C463.788 592.747 462.359 590.978 460.656 590.114C458.224 588.879 455.702 589.423 453.246 590.257L452.735 590.436C449.272 588.976 445.81 587.714 442.234 586.559C443.981 576.387 445.788 566.226 447.655 556.076C450.453 556.616 453.131 557.604 455.824 558.519C457.296 560.962 458.733 562.885 461.359 564.16C463.676 565.286 466.429 565.689 468.86 564.658C470.303 564.045 471.695 562.873 472.178 561.33C472.654 559.81 472.571 558.535 471.696 557.17C468.136 551.612 463.596 555.172 459.206 553.864C455.512 552.763 452.408 550.913 448.557 550.043C450.87 540.925 452.375 531.63 453.85 522.348C461.992 524.642 461.599 527.62 467.646 530.788C469.538 531.78 472.371 531.956 474.377 531.23C475.958 530.658 477.606 529.172 478.142 527.552C478.667 525.966 478.418 523.508 477.507 522.094C474.737 517.797 469.353 520.913 465.65 520.183C463.246 519.708 458.714 517.126 455.287 516.246C456.674 507.103 458.359 498.008 460.342 488.975C462.481 489.597 466.493 490.272 468.251 491.554C470.096 492.899 470.574 495.25 472.683 496.406C474.609 497.462 478.227 497.708 480.332 497.103C481.966 496.634 483.575 495.568 484.315 494.001C484.868 492.829 484.787 491.708 484.29 490.53C483.514 488.69 481.303 487.228 479.53 486.506C477.707 485.764 475.573 485.434 473.742 486.296C473.28 486.513 472.382 487.012 471.811 486.923C469.251 486.522 464.495 483.923 461.381 483.061C463.273 473.108 464.476 463.061 466.469 453.097C469.263 453.741 472.001 454.696 474.737 455.551C475.393 456.546 476.051 457.574 476.818 458.487C478.52 460.51 481.297 461.589 483.9 461.607C485.986 461.622 488.179 460.812 489.586 459.239C490.685 458.01 490.877 456.843 490.712 455.221C488.164 450.077 479.93 450.951 475.014 449.818C472.383 449.211 469.757 448.104 467.244 447.134C468.713 437.746 470.551 428.397 472.248 419.046C475.087 419.835 477.72 420.941 480.423 422.095C481.123 423.288 481.825 424.577 482.785 425.581C484.453 427.326 487.048 428.756 489.505 428.746C491.428 428.72 493.252 427.89 494.536 426.459C495.565 425.294 496.199 423.544 495.962 421.981C495.694 420.214 494.817 418.699 493.276 417.76C490.41 416.013 486.517 416.627 483.482 417.478C480.09 415.706 476.69 414.117 473.16 412.64C475.339 403.267 476.625 393.619 478.075 384.112C481.176 385.418 483.887 386.814 486.724 388.635C487.335 390.543 487.792 392.194 489.385 393.529C491.404 395.253 494.066 396.029 496.696 395.662C498.707 395.373 500.798 394.351 501.887 392.568C502.541 391.496 502.794 390.211 502.422 388.996C500.54 382.859 494.411 385.209 490.078 383.648C486.454 382.342 482.921 379.809 479.312 378.218ZM518.746 420.342C517.735 421.482 517.096 422.115 516.986 423.719C517.694 424.926 518.026 425.367 519.479 425.743C532.107 429.005 545.557 430.57 558.41 432.976C577.671 436.581 597.169 440.993 616.585 443.495C617.659 442.45 617.82 442.208 618.245 440.773C617.879 439.575 617.817 439.2 616.628 438.544C615.127 437.717 526.897 421.44 518.746 420.342ZM511.081 456.41C510.656 457.784 510.308 458.736 510.652 460.191C511.726 461.267 512.11 461.403 513.573 461.819C522.304 464.3 533.593 465.517 542.664 467.162L612.409 479.566C613.057 478.101 613.586 477.38 613.403 475.768C612.397 474.622 610.998 474.386 609.568 474.05C588.278 469.05 566.208 465.992 544.662 462.212C534.666 460.459 522.563 457.138 512.737 456.464C512.186 456.423 511.634 456.405 511.081 456.41ZM505.117 492.8C504.682 494.248 504.307 495.197 504.834 496.697C506.279 498.048 508.536 498.353 510.422 498.781C530.786 503.399 551.58 506.555 572.087 510.501C582.268 512.461 596.919 516.586 606.543 517.111C606.891 515.497 607.056 515.116 606.504 513.505C605.563 512.552 604.764 512.034 603.47 511.645C598.191 510.058 592.379 509.3 586.946 508.204L552.228 501.351L523.25 495.763C517.308 494.628 511.157 493.163 505.117 492.8ZM497.754 528.428C497.038 529.526 496.338 530.369 496.387 531.743C497.28 533.011 497.793 533.296 499.27 533.768C507.773 536.484 517.775 537.511 526.596 539.151C542.231 542.005 557.841 544.991 573.425 548.108C582.067 549.836 590.909 551.376 599.41 553.695C600.147 552.412 600.731 551.584 600.555 550.037C599.998 549.216 599.65 548.802 598.733 548.359C593.769 545.966 566.034 541.323 558.009 539.782C545.609 537.496 533.225 535.128 520.857 532.679C513.815 531.266 504.75 528.42 497.754 528.428ZM493.105 560.797C492.653 562.441 492.378 563.024 492.786 564.714C493.79 565.805 495.162 566 496.547 566.338C517.458 571.45 539.124 574.71 560.292 578.618L582.599 582.738C585.782 583.323 589.221 584.265 592.446 584.435C592.638 584.446 592.83 584.439 593.022 584.441C593.584 582.963 593.929 582.455 593.644 580.869C592.301 579.705 590.714 579.295 589.02 578.896C581.414 577.107 573.579 575.941 565.893 574.517L528.325 567.356L505.887 562.948C501.806 562.137 497.261 560.791 493.105 560.797ZM490.123 592.318C489.617 593.746 489.199 594.696 489.603 596.232C490.663 597.369 492.273 597.615 493.735 597.96C515.689 603.144 538.393 606.621 560.607 610.663C567.682 611.95 579.833 615.162 586.547 615.494C587.148 615.526 587.751 615.535 588.353 615.521C588.921 614.04 589.164 613.424 588.8 611.814C588.092 610.878 587.473 610.379 586.33 610.036C582.394 608.853 577.846 608.465 573.761 607.749C566.168 606.396 558.584 604.991 551.01 603.534L514.296 596.498C507.33 595.144 500.36 593.521 493.335 592.527C492.252 592.373 491.218 592.308 490.123 592.318Z"/><path fill="#FEFEFE" d="M470.634 391.529C467.375 389.888 461.416 388.414 459.655 385.115C459.993 383.568 460.744 383.42 462.009 382.531C465.624 382.36 469.213 382.947 472.768 383.525C472.636 384.523 472.49 385.519 472.33 386.513C472.076 388.031 471.86 390.664 470.634 391.529Z"/><path fill="#FEFEFE" d="M464.066 424.571C462.336 423.685 460.632 422.749 458.955 421.766C457.449 420.871 456.36 420.15 455.918 418.403C456.998 417.272 458.005 417.425 459.524 417.197C461.94 417.123 464.375 417.405 466.783 417.591C466.372 419.744 466.22 422.996 464.972 424.788L464.066 424.571Z"/><path d="M616.585 443.495C597.169 440.993 577.671 436.581 558.41 432.976C545.557 430.57 532.107 429.005 519.479 425.743C518.026 425.367 517.694 424.926 516.986 423.719C517.096 422.115 517.735 421.482 518.746 420.342C526.897 421.44 615.127 437.717 616.628 438.544C617.817 439.2 617.879 439.575 618.245 440.773C617.82 442.208 617.659 442.45 616.585 443.495Z"/><path d="M275.996 451.839C281.783 450.172 288.353 450.438 294.341 450.223C314.738 448.815 394.324 454.971 410.596 464.12C410.424 469.301 409.515 474.685 408.466 479.758C404.044 501.154 393.464 516.614 375.262 528.608C365.278 534.851 353.575 541.982 342.256 545.392C336.032 543.709 330.127 540.074 324.606 536.815C308.54 527.33 292.2 516.289 282.233 500.075C273.324 485.582 272.078 468.163 275.996 451.839ZM286.945 455.72L280.025 455.988C278.209 475.517 278.765 488.961 291.593 504.504C303.94 519.464 324.088 532.771 341.928 540.544C352.654 535.906 368.703 528.573 377.601 521.091C394.867 508.22 401.706 492.282 404.745 471.43C404.958 469.971 405.14 468.524 405.251 467.053C366.838 458.549 326.332 453.672 286.945 455.72Z"/><path fill="#FEFEFE" d="M457.948 458.459C455.451 457.691 451.901 456.843 450.575 454.358C450.214 453.683 450.485 453.434 450.695 452.762C452.013 451.598 453.249 451.46 454.913 451.16L461.309 451.611C461.082 453.855 461.161 457.177 459.48 458.77L457.948 458.459Z"/><path fill="#FEFEFE" d="M633.575 477.338C661.898 479.282 700.163 470.572 723.872 454.462C725.989 456.406 754.574 586.229 757.354 598.589C732.572 613.528 695.828 623.457 666.878 620.984L664.565 620.762C664.248 620.5 663.815 620.335 663.615 619.975C660.871 615.042 652.774 572.611 650.968 563.76C645.099 534.995 638.686 506.244 633.575 477.338ZM651.292 498.231C650.776 499.901 650.697 501.062 650.928 502.797C651.822 509.5 653.659 516.313 655.064 522.932C657.921 536.519 660.857 550.088 663.871 563.641C665.811 572.455 667.114 583.942 670.013 592.205C671.158 593.321 672.152 593.419 673.656 593.671C674.217 592.602 674.763 591.663 674.665 590.405C674.339 586.252 672.948 581.73 672.069 577.629L666.201 550.207L659.379 517.475C658.24 511.984 657.421 506.171 655.763 500.829C655.505 499.998 655.233 499.502 654.649 498.86C653.447 498.42 652.571 498.254 651.292 498.231Z"/><path fill="#770723" d="M280.025 455.988L286.945 455.72C326.332 453.672 366.838 458.549 405.251 467.053C405.14 468.524 404.958 469.971 404.745 471.43C401.706 492.282 394.867 508.22 377.601 521.091C368.703 528.573 352.654 535.906 341.928 540.544C324.088 532.771 303.94 519.464 291.593 504.504C278.765 488.961 278.209 475.517 280.025 455.988Z"/><path d="M612.409 479.566L542.664 467.162C533.593 465.517 522.304 464.3 513.573 461.819C512.11 461.403 511.726 461.267 510.652 460.191C510.308 458.736 510.656 457.784 511.081 456.41C511.634 456.405 512.186 456.423 512.737 456.464C522.563 457.138 534.666 460.459 544.662 462.212C566.208 465.992 588.278 469.05 609.568 474.05C610.998 474.386 612.397 474.622 613.403 475.768C613.586 477.38 613.057 478.101 612.409 479.566Z"/><path fill="#FEFEFE" d="M452.916 494.972C449.977 493.653 444.294 491.801 442.357 489.252C441.77 488.479 441.956 488.817 442.065 487.681L443.677 486.564C447.547 486.348 450.877 486.753 454.643 487.563C454.253 489.83 454.111 493.012 452.916 494.972Z"/><path d="M606.543 517.111C596.919 516.586 582.268 512.461 572.087 510.501C551.58 506.555 530.786 503.399 510.422 498.781C508.536 498.353 506.279 498.048 504.834 496.697C504.307 495.197 504.682 494.248 505.117 492.8C511.157 493.163 517.308 494.628 523.25 495.763L552.228 501.351L586.946 508.204C592.379 509.3 598.191 510.058 603.47 511.645C604.764 512.034 605.563 512.552 606.504 513.505C607.056 515.116 606.891 515.497 606.543 517.111Z"/><path d="M673.656 593.671C672.152 593.419 671.158 593.321 670.013 592.205C667.114 583.942 665.811 572.455 663.871 563.641C660.857 550.088 657.921 536.519 655.064 522.932C653.659 516.313 651.822 509.5 650.928 502.797C650.697 501.062 650.776 499.901 651.292 498.231C652.571 498.254 653.447 498.42 654.649 498.86C655.233 499.502 655.505 499.998 655.763 500.829C657.421 506.171 658.24 511.984 659.379 517.475L666.201 550.207L672.069 577.629C672.948 581.73 674.339 586.252 674.665 590.405C674.763 591.663 674.217 592.602 673.656 593.671Z"/><path fill="#FEFEFE" d="M446.613 528.896C444.599 528.364 442.579 527.851 440.677 526.982C438.946 526.192 437.887 525.577 437.218 523.759C437.928 522.364 438.459 522.293 439.815 521.584C442.794 521.4 445.768 521.543 448.749 521.633C448.309 523.577 447.977 527.614 446.613 528.896Z"/><path d="M599.41 553.695C590.909 551.376 582.067 549.836 573.425 548.108C557.841 544.991 542.231 542.005 526.596 539.151C517.775 537.511 507.773 536.484 499.27 533.768C497.793 533.296 497.28 533.011 496.387 531.743C496.338 530.369 497.038 529.526 497.754 528.428C504.75 528.42 513.815 531.266 520.857 532.679C533.225 535.128 545.609 537.496 558.009 539.782C566.034 541.323 593.769 545.966 598.733 548.359C599.65 548.802 599.998 549.216 600.555 550.037C600.731 551.584 600.147 552.412 599.41 553.695Z"/><path fill="#C77517" d="M428.785 678.108C442.148 681.06 456.049 682.439 469.598 684.341L524.24 692.203L579.151 699.938C588.15 701.18 597.236 702.66 606.283 703.475C608.464 703.671 614.037 704.192 615.751 702.952C617.407 701.753 618.498 696.667 618.972 694.627C622.989 677.347 624.943 659.275 627.967 641.779C633.131 611.9 638.923 581.946 642.704 551.865C642.834 552.143 642.988 552.41 643.094 552.697C644.805 557.366 646.364 566.295 646.192 571.31C645.943 578.551 644.156 586.337 643.019 593.509C640.467 609.406 637.774 625.28 634.941 641.13C631.132 662.352 628.397 684.416 623.544 705.357C623.05 707.491 622.443 709.543 621.48 711.52C614.284 713.171 518.557 698.325 502.238 695.99C481.737 693.056 460.81 690.945 440.497 686.983C438.634 686.62 436.959 686.109 435.249 685.265C432.739 683.114 430.801 680.713 428.785 678.108Z"/><path fill="#FEFEFE" d="M441.203 561.876C438.471 561.033 435.384 560.082 432.962 558.545C431.803 557.81 431.344 557.347 430.995 556.035L431.778 555.194C435.404 554.742 438.8 554.863 442.432 555.129C442.094 557.391 441.64 559.631 441.203 561.876Z"/><path d="M593.022 584.441C592.83 584.439 592.638 584.446 592.446 584.435C589.221 584.265 585.782 583.323 582.599 582.738L560.292 578.618C539.124 574.71 517.458 571.45 496.547 566.338C495.162 566 493.79 565.805 492.786 564.714C492.378 563.024 492.653 562.441 493.105 560.797C497.261 560.791 501.806 562.137 505.887 562.948L528.325 567.356L565.893 574.517C573.579 575.941 581.414 577.107 589.02 578.896C590.714 579.295 592.301 579.705 593.644 580.869C593.929 582.455 593.584 582.963 593.022 584.441Z"/><path d="M233.268 719.074C232.39 718.971 231.568 718.782 230.707 718.586C229.964 717.803 229.597 717.571 229.496 716.447C229.243 713.602 230.316 709.873 230.864 707.067C238.046 670.33 258.313 631.539 276.199 598.762C280.88 590.184 285.474 580.218 291.764 572.718C292.12 572.753 292.492 572.775 292.834 572.888C294.146 573.32 294.286 573.594 294.896 574.745C294.905 576.107 294.544 577.129 293.943 578.33C291.387 583.436 287.916 588.41 285.121 593.462C278.055 606.175 271.297 619.056 264.852 632.094C257.026 647.859 249.494 664.272 243.732 680.912C240.895 689.107 238.223 697.59 236.53 706.105C235.795 709.802 235.616 716.293 233.268 719.074Z"/><path fill="#FEFEFE" d="M433.276 599.93C430.374 599.179 426.87 598.25 424.356 596.604C423.144 595.81 422.785 595.3 422.453 593.92C423.519 592.453 424.419 592.28 426.059 591.566C429.365 591.282 432.699 591.485 436.011 591.582C435.711 594.073 435.722 597.487 434.466 599.686L433.276 599.93Z"/><path d="M588.353 615.521C587.751 615.535 587.148 615.526 586.547 615.494C579.833 615.162 567.682 611.95 560.607 610.663C538.393 606.621 515.689 603.144 493.735 597.96C492.273 597.615 490.663 597.369 489.603 596.232C489.199 594.696 489.617 593.746 490.123 592.318C491.218 592.308 492.252 592.373 493.335 592.527C500.36 593.521 507.33 595.144 514.296 596.498L551.01 603.534C558.584 604.991 566.168 606.396 573.761 607.749C577.846 608.465 582.394 608.853 586.33 610.036C587.473 610.379 588.092 610.878 588.8 611.814C589.164 613.424 588.921 614.04 588.353 615.521Z"/><path fill="#39090A" d="M703.569 624.137C722.385 620.328 741.993 614.014 758.659 604.448C760.868 615.375 763.395 626.242 765.503 637.186C750.623 648.744 730.755 659.523 711.505 660.325C709.782 650.922 706.885 632.303 703.569 624.137Z"/><path fill="#FEFEFE" d="M427.265 634.545C424.413 633.522 419.609 632.088 417.548 629.848C416.549 628.762 416.583 628.492 416.639 627.116C417.673 625.703 418.716 625.317 420.31 624.668C423.604 624.441 426.904 624.608 430.2 624.706C429.746 627.676 429.622 631.69 428.281 634.348L427.265 634.545Z"/><path fill="#FEFEFE" d="M693.28 625.571L703.569 624.137C706.885 632.303 709.782 650.922 711.505 660.325C708.208 660.762 704.883 661.315 701.571 661.603C698.698 649.618 695.934 637.606 693.28 625.571Z"/><path fill="#39090A" d="M683.7 626.488C686.837 625.916 690.097 625.711 693.28 625.571C695.934 637.606 698.698 649.618 701.571 661.603C697.995 662.07 694.481 662.184 690.877 662.031C689.036 650.098 685.957 638.351 683.7 626.488Z"/><path fill="#FEFEFE" d="M672.123 626.826L683.7 626.488C685.957 638.351 689.036 650.098 690.877 662.031C686.967 662.166 683.05 661.427 679.217 660.755C676.308 649.639 674.355 638.102 672.123 626.826Z"/><path d="M357.033 809.368L355.602 808.855C354.621 807.738 354.599 807.705 354.514 806.223C356.712 802.77 362.346 805 365.735 805.443C387.093 808.241 408.095 807.595 429.421 804.83C467.801 799.855 502.912 787.213 538.428 772.34C568.803 759.687 598.349 745.127 626.889 728.749C654.505 712.724 680.856 695.08 707.689 677.847L709.704 678.654C710.504 679.796 710.518 679.771 710.374 681.155C709.434 682.686 708.157 683.75 706.722 684.804C693.932 694.192 679.861 702.406 666.374 710.781C618.245 740.667 568.817 766.864 515.775 787.033C496.591 794.327 477.203 801.14 457.107 805.504C423.393 812.825 391.155 814.774 357.033 809.368Z"/></svg>